<?xml version="1.0"?>
<svg xmlns="http://www.w3.org/2000/svg" width="150" height="40" viewBox="0 0 150 40" fill="none">
<path d="M143.297 13.2286V10.0186H144.72C145.007 10.0186 145.226 10.0486 145.376 10.1043C145.526 10.16 145.642 10.2628 145.732 10.4086C145.822 10.5543 145.864 10.7171 145.864 10.8928C145.864 11.12 145.792 11.3128 145.646 11.4671C145.496 11.6214 145.269 11.7243 144.96 11.7628C145.076 11.8186 145.157 11.87 145.217 11.9214C145.342 12.0328 145.457 12.1786 145.569 12.35L146.13 13.2243H145.594L145.17 12.5557C145.046 12.3628 144.943 12.2171 144.862 12.1143C144.78 12.0114 144.712 11.9386 144.643 11.9C144.579 11.8571 144.519 11.8271 144.45 11.8143C144.403 11.8057 144.326 11.7971 144.214 11.7971H143.722V13.2243H143.293L143.297 13.2286ZM143.722 11.4328H144.634C144.832 11.4328 144.982 11.4114 145.089 11.3728C145.2 11.3343 145.282 11.2657 145.337 11.18C145.393 11.09 145.423 10.9957 145.423 10.8928C145.423 10.7428 145.367 10.6143 145.256 10.52C145.144 10.4214 144.973 10.3743 144.733 10.3743H143.717V11.4371L143.722 11.4328Z" fill="#4D4D4D"/>
<path d="M141.733 11.5828C141.733 10.0228 142.997 8.75854 144.557 8.75854C146.117 8.75854 147.381 10.0228 147.381 11.5828C147.381 13.1428 146.117 14.4071 144.557 14.4071C142.997 14.4071 141.733 13.1428 141.733 11.5828ZM142.149 11.5828C142.149 12.9114 143.229 13.9871 144.557 13.9914C145.89 13.9914 146.966 12.9114 146.966 11.5828C146.966 10.2543 145.886 9.17426 144.557 9.16997C143.229 9.16997 142.149 10.25 142.149 11.5828Z" fill="#4D4D4D"/>
<path d="M104.739 32.4114H95.5371V25.9914H82.6586V32.4114H73.4614V13.5543C73.4614 11.9428 74.0657 10.67 75.2829 9.70998C76.47 8.77998 78.1629 8.32141 80.37 8.32141H97.8771C100.084 8.32141 101.777 8.78427 102.96 9.70998C104.147 10.6357 104.743 11.9214 104.743 13.5543V32.4114H104.739ZM95.5371 21.56V14.5871H82.6586V21.56H95.5371Z" fill="#4D4D4D"/>
<path d="M137.726 9.52997C136.796 8.79283 135.364 8.39854 133.449 8.33425L133.483 8.32568H133.123C133.046 8.32568 132.973 8.32568 132.891 8.32568H116.507H115.976C113.773 8.32568 112.08 8.78425 110.889 9.71854C109.701 10.64 109.101 11.8914 109.071 13.4428V13.4985C109.071 13.5243 109.071 13.5371 109.071 13.5585V32.4114H118.269V26.12H133.144C137.186 26.12 139.204 24.5043 139.204 21.2471V13.5243C139.204 11.6685 138.707 10.34 137.721 9.52997H137.726ZM129.844 20.8271H118.14V14.5828H129.844V20.8271Z" fill="#4D4D4D"/>
<path d="M61.8942 8.32141H60.5228V22.3357C60.4628 22.4814 60.3299 22.5928 60.0514 22.5414C60.0514 22.5414 59.8714 22.5071 59.7428 22.37C58.1914 19.97 52.2085 11.75 50.2971 9.13141C50.2928 9.12284 50.2799 9.11427 50.2714 9.1057H50.2757C50.2457 9.0757 50.2157 9.04998 50.1814 9.02427C50.1685 9.00284 50.1514 8.98141 50.1385 8.97713C49.6499 8.5357 49.0114 8.32141 48.1628 8.32141H40.7314C39.7971 8.32141 39.0771 8.58713 38.5757 9.10998C38.0699 9.63713 37.8171 10.3486 37.8085 11.2271L37.7957 11.2357V32.4114H46.4871C46.4871 32.4114 46.4357 21.2257 46.4142 17.9257C46.4528 17.7071 46.6071 17.39 47.2714 17.4757C47.2714 17.4757 47.5285 17.4928 47.6357 17.6857C49.3114 20.3643 60.2999 32.4114 60.2999 32.4114H69.3257V8.32141H61.8942Z" fill="#4D4D4D"/>
<path d="M22.6714 26.8314C22.5343 26.7329 22.3971 26.6343 22.26 26.5357H12.63V13.8243H25.4529V24.6071C29.3057 25.8071 31.9543 27.3543 33.7543 28.82C34.0586 28.0486 34.2172 27.1571 34.2172 26.1371V14.3943C34.2172 10.3614 31.8557 8.23571 27.1457 8.01714V8H26.3743C26.3443 8 26.3186 8 26.2886 8H10.8472C5.55858 8 2.91858 10.1343 2.91858 14.3943V26.1371C2.91858 30.3757 5.56286 32.4971 10.8472 32.4971H26.31C27.1371 32.4929 27.8871 32.4329 28.5857 32.3257C27.2957 30.4657 24.9043 28.4471 22.6671 26.8314H22.6714Z" fill="#4D4D4D"/>
<path d="M19.6843 23.8485C22.5686 25.6785 27.8229 29.3128 29.5586 32.6257H36.1029C34.9843 30.6328 31.2043 25.8242 19.6801 23.8485H19.6843Z" fill="#4D4D4D"/>
</svg>
