<svg width="28" height="29" viewBox="0 0 28 29" fill="none" xmlns="http://www.w3.org/2000/svg">
<path d="M22.1665 20.3333V6.33333C22.1665 5.71449 21.9207 5.121 21.4831 4.68342C21.0455 4.24583 20.452 4 19.8332 4H4.6665" stroke="#0074E1" stroke-width="2" stroke-linecap="round" stroke-linejoin="round"/>
<path d="M9.3335 25H23.3335C23.9523 25 24.5458 24.7542 24.9834 24.3166C25.421 23.879 25.6668 23.2855 25.6668 22.6667V21.5C25.6668 21.1906 25.5439 20.8938 25.3251 20.675C25.1063 20.4562 24.8096 20.3333 24.5002 20.3333H12.8335C12.5241 20.3333 12.2273 20.4562 12.0085 20.675C11.7897 20.8938 11.6668 21.1906 11.6668 21.5V22.6667C11.6668 23.2855 11.421 23.879 10.9834 24.3166C10.5458 24.7542 9.95234 25 9.3335 25ZM9.3335 25C8.71466 25 8.12117 24.7542 7.68358 24.3166C7.246 23.879 7.00016 23.2855 7.00016 22.6667V6.33333C7.00016 5.71449 6.75433 5.121 6.31675 4.68342C5.87916 4.24583 5.28567 4 4.66683 4C4.04799 4 3.4545 4.24583 3.01691 4.68342C2.57933 5.121 2.3335 5.71449 2.3335 6.33333V8.66667C2.3335 8.97609 2.45641 9.27283 2.6752 9.49162C2.894 9.71042 3.19074 9.83333 3.50016 9.83333H7.00016" stroke="#292F37" stroke-width="2" stroke-linecap="round" stroke-linejoin="round"/>
<path d="M14.3071 6.64612C14.7885 6.43681 15.3293 6.64987 15.5552 7.09729L15.8804 7.73889L16.2056 7.10022V7.1012C16.429 6.65907 16.92 6.48886 17.3433 6.61096L17.4272 6.63928L17.4399 6.64417L18.6392 7.13928L18.6382 7.14026C19.1044 7.32978 19.3517 7.85061 19.1919 8.33459L19.1929 8.33557L18.9673 9.02405L19.6567 8.79944L19.6704 8.79456C20.1137 8.65965 20.6502 8.85694 20.8521 9.35217L21.3413 10.5387C21.5511 11.0213 21.3368 11.5638 20.8872 11.7887L20.8862 11.7877L20.2476 12.1119L20.8872 12.4371H20.8862C21.358 12.6756 21.5203 13.2185 21.3481 13.6588L21.3433 13.6715L20.8481 14.8707L20.8472 14.8698C20.6575 15.3363 20.1361 15.5839 19.6519 15.4235V15.4244L18.9624 15.1989L19.188 15.8883L19.1929 15.902C19.3279 16.3455 19.1302 16.882 18.6343 17.0836L17.4478 17.5729C16.9653 17.7823 16.4235 17.5682 16.1987 17.1188V17.1178L15.8755 16.4801L15.5503 17.1188L15.5493 17.1178C15.3108 17.5892 14.7689 17.7518 14.3286 17.5797L14.3159 17.5748L13.1167 17.0797V17.0787C12.6509 16.8888 12.4029 16.3673 12.563 15.8834L12.7876 15.194L12.1001 15.4196C12.0953 15.4211 12.0902 15.423 12.0854 15.4244C11.6419 15.5594 11.1054 15.3617 10.9038 14.8658L10.4116 13.6764C10.2048 13.1949 10.4203 12.6546 10.8687 12.4303H10.8696L11.5073 12.1061L10.8687 11.7819L10.8696 11.7809C10.3982 11.5423 10.2356 11.0004 10.4077 10.5602L10.4126 10.5475L10.9077 9.34827H10.9087C11.0985 8.8827 11.6194 8.63505 12.103 8.79456H12.104L12.7925 9.01917L12.5679 8.33167C12.5663 8.32691 12.5644 8.3218 12.563 8.31702C12.4281 7.87376 12.6254 7.33726 13.1206 7.13538L14.3071 6.64612Z" fill="#E2F1FF" stroke="#0074E1" stroke-width="1.5" stroke-linecap="round" stroke-linejoin="round"/>
<path d="M17.3502 11.5002C17.6862 12.3169 17.2989 13.2502 16.4869 13.5862C15.6702 13.9222 14.7369 13.5349 14.4009 12.7229C14.0649 11.9062 14.4522 10.9729 15.2642 10.6369C16.0809 10.3009 17.0142 10.6882 17.3502 11.5002Z" fill="white" stroke="#0074E1" stroke-width="1.5" stroke-linecap="round" stroke-linejoin="round"/>
</svg>
