<svg width="28" height="29" viewBox="0 0 28 29" fill="none" xmlns="http://www.w3.org/2000/svg">
<path d="M5.83333 8.66666C5.21449 8.66666 4.621 8.91249 4.18342 9.35007C3.74583 9.78766 3.5 10.3812 3.5 11V23.8333" stroke="#292F37" stroke-width="2" stroke-linecap="round" stroke-linejoin="round"/>
<path d="M6.77017 21.5H5.83333C5.21449 21.5 4.621 21.7458 4.18342 22.1834C3.74583 22.621 3.5 23.2145 3.5 23.8333C3.5 24.4522 3.74583 25.0457 4.18342 25.4832C4.621 25.9208 5.21449 26.1667 5.83333 26.1667H16.9167C17.0714 26.1667 17.2197 26.1052 17.3291 25.9958C17.4385 25.8864 17.5 25.738 17.5 25.5833V25" stroke="#292F37" stroke-width="2" stroke-linecap="round" stroke-linejoin="round"/>
<path d="M10.5 18V5.16668C10.5 4.54784 10.7458 3.95435 11.1834 3.51676C11.621 3.07918 12.2145 2.83334 12.8333 2.83334H23.9167C24.0714 2.83334 24.2197 2.8948 24.3291 3.0042C24.4385 3.11359 24.5 3.26197 24.5 3.41668V19.75C24.5 19.9047 24.4385 20.0531 24.3291 20.1625C24.2197 20.2719 24.0714 20.3333 23.9167 20.3333H12.8333C12.2145 20.3333 11.621 20.0875 11.1834 19.6499C10.7458 19.2123 10.5 18.6188 10.5 18C10.5 17.3812 10.7458 16.7877 11.1834 16.3501C11.621 15.9125 12.2145 15.6667 12.8333 15.6667H24.5" fill="#E2F1FF"/>
<path d="M10.5 18V5.16668C10.5 4.54784 10.7458 3.95435 11.1834 3.51676C11.621 3.07918 12.2145 2.83334 12.8333 2.83334H23.9167C24.0714 2.83334 24.2197 2.8948 24.3291 3.0042C24.4385 3.11359 24.5 3.26197 24.5 3.41668V19.75C24.5 19.9047 24.4385 20.0531 24.3291 20.1625C24.2197 20.2719 24.0714 20.3333 23.9167 20.3333H12.8333C12.2145 20.3333 11.621 20.0875 11.1834 19.6499C10.7458 19.2123 10.5 18.6188 10.5 18ZM10.5 18C10.5 17.3812 10.7458 16.7877 11.1834 16.3501C11.621 15.9125 12.2145 15.6667 12.8333 15.6667H24.5" stroke="#0074E1" stroke-width="2" stroke-linecap="round" stroke-linejoin="round"/>
</svg>
