<svg width="24" height="25" viewBox="0 0 24 25" fill="none" xmlns="http://www.w3.org/2000/svg">
<path d="M11.017 3.31401C11.0598 3.08462 11.1815 2.87743 11.3611 2.72833C11.5406 2.57924 11.7666 2.49762 12 2.49762C12.2333 2.49762 12.4593 2.57924 12.6389 2.72833C12.8184 2.87743 12.9401 3.08462 12.983 3.31401L14.034 8.87201C14.1086 9.26716 14.3006 9.63063 14.585 9.91498C14.8693 10.1993 15.2328 10.3914 15.628 10.466L21.186 11.517C21.4153 11.5599 21.6225 11.6816 21.7716 11.8611C21.9207 12.0406 22.0023 12.2667 22.0023 12.5C22.0023 12.7334 21.9207 12.9594 21.7716 13.1389C21.6225 13.3184 21.4153 13.4402 21.186 13.483L15.628 14.534C15.2328 14.6087 14.8693 14.8007 14.585 15.085C14.3006 15.3694 14.1086 15.7329 14.034 16.128L12.983 21.686C12.9401 21.9154 12.8184 22.1226 12.6389 22.2717C12.4593 22.4208 12.2333 22.5024 12 22.5024C11.7666 22.5024 11.5406 22.4208 11.3611 22.2717C11.1815 22.1226 11.0598 21.9154 11.017 21.686L9.96595 16.128C9.89131 15.7329 9.69928 15.3694 9.41492 15.085C9.13057 14.8007 8.7671 14.6087 8.37195 14.534L2.81395 13.483C2.58456 13.4402 2.37737 13.3184 2.22827 13.1389C2.07917 12.9594 1.99756 12.7334 1.99756 12.5C1.99756 12.2667 2.07917 12.0406 2.22827 11.8611C2.37737 11.6816 2.58456 11.5599 2.81395 11.517L8.37195 10.466C8.7671 10.3914 9.13057 10.1993 9.41492 9.91498C9.69928 9.63063 9.89131 9.26716 9.96595 8.87201L11.017 3.31401Z" fill="#E2F1FF" stroke="#0074E1" stroke-width="2" stroke-linecap="round" stroke-linejoin="round"/>
<path d="M20 2.5V6.5" stroke="black" stroke-width="1.5" stroke-linecap="round" stroke-linejoin="round"/>
<path d="M22 4.5H18" stroke="black" stroke-width="1.5" stroke-linecap="round" stroke-linejoin="round"/>
<path d="M4 22.5C5.10457 22.5 6 21.6046 6 20.5C6 19.3954 5.10457 18.5 4 18.5C2.89543 18.5 2 19.3954 2 20.5C2 21.6046 2.89543 22.5 4 22.5Z" stroke="black" stroke-width="1.5" stroke-linecap="round" stroke-linejoin="round"/>
</svg>
